<?xml version="1.0" encoding="utf-8"?>
<!-- Generator: Adobe Illustrator 19.0.0, SVG Export Plug-In . SVG Version: 6.00 Build 0)  -->
<svg version="1.1" id="Layer_1" xmlns="http://www.w3.org/2000/svg" xmlns:xlink="http://www.w3.org/1999/xlink" x="0px" y="0px"
	 viewBox="0 0 423 409" style="enable-background:new 0 0 423 409;" xml:space="preserve">
<style type="text/css">
	.st0{display:none;}
	.st1{fill:rgb(251, 4, 90);}
	.st2{fill:#FFFFFF;}
	.st3{fill:none;}
</style>
<rect x="-24" y="-21" class="st0" width="549" height="490"/>
<g>
	<path class="st1" d="M278.6,190.8c0.1-35.9-29.1-65.2-65-65.3c-35.7,0-64.7,28.9-65,64.8c-0.3,35.8,28.9,65.3,64.8,65.4
		C249.2,255.9,278.5,226.8,278.6,190.8z M319.6,138.2c35.8-0.1,65.3-29.7,65-65.3C384.4,37.1,355.2,8.1,319.6,8
		c-35.7-0.1-65.2,29.4-65.2,65.2C254.4,108.9,283.8,138.3,319.6,138.2z M87.9,20.1c0,13.9,0,27.3,0,41c-13.8,0-27,0-40.5,0
		c0,8,0,15.7,0,23.8c13.6,0,27,0,40.8,0c0,13.9,0,27.3,0,40.8c8.2,0,15.9,0,24,0c0-13.6,0-26.9,0-40.7c13.8,0,27.3,0,41.1,0
		c0-8.2,0-15.8,0-24c-13.7,0-27.2,0-41.2,0c0-13.9,0-27.3,0-40.8C103.9,20.1,96.3,20.1,87.9,20.1z"/>
	<path class="st2" d="M8.8,278.2c2.1-6.4,3.4-13.2,6.4-19.1c16.1-31.9,56.2-41.3,84.9-20.1c16.1,12,33,22.5,52,29.2
		c26.7,9.4,54,12.7,82.2,9.5c27.7-3.2,53.3-12.2,76.8-27.4c5.6-3.6,10.9-7.7,16.3-11.6c25.5-18.5,60.2-13.4,79.5,11.7
		c18.7,24.3,14.4,59.2-10,78.7c-41.8,33.3-89.2,53.7-142.1,61c-64.2,8.9-125-2.1-181.9-33C57.9,349.1,44,339,30.3,328.9
		c-11.6-8.5-18.2-20.6-20.7-34.9c-0.2-1-0.5-2-0.8-3C8.8,286.7,8.8,282.5,8.8,278.2z M208.9,369.3c41.7,0.1,80.2-8,114.4-23.1
		c21.2-9.4,40.9-21.3,58.9-35.9c11.4-9.2,15-23.2,9.9-37.5c-4.2-12-17.1-20.8-30.3-21.1c-9-0.2-16.5,3.4-23.5,8.7
		c-16,12.4-33.5,22.2-52.5,29.3c-34.5,13-69.9,16.5-106.1,10.4c-26.4-4.4-51.2-13.6-73.8-28c-7.5-4.8-14.6-10.2-22.1-15.2
		c-7.5-5-15.8-6.5-24.4-4.6c-13.9,3.2-22.8,12-25.8,25.8c-3,13.6,2,24.7,12.8,33.1C95.4,349.8,151.3,368.5,208.9,369.3z"/>
	<path class="st2" d="M278.6,190.8c-0.1,36-29.4,65.1-65.2,64.9c-35.9-0.2-65.1-29.6-64.8-65.4c0.3-35.9,29.4-64.9,65-64.8
		C249.5,125.6,278.7,155,278.6,190.8z M254.7,190.6c-0.1-22.5-18.9-41.2-41.3-41.1c-22.3,0.1-40.8,18.7-40.9,41.1
		c-0.1,22.6,18.5,41.2,41.1,41.2C236.2,231.8,254.8,213.1,254.7,190.6z"/>
	<path class="st2" d="M319.6,138.2c-35.8,0.1-65.2-29.3-65.2-65.1c0-35.8,29.5-65.3,65.2-65.2c35.7,0.1,64.8,29.2,65.1,64.9
		C384.9,108.5,355.4,138.1,319.6,138.2z M319.7,114.2c22.3-0.1,40.9-18.7,41-41c0.1-22.3-18.8-41.3-41.2-41.3
		c-22.4,0-41.2,18.8-41.2,41.3C278.4,95.7,297.1,114.3,319.7,114.2z"/>
	<path class="st2" d="M87.9,20.1c8.4,0,16.1,0,24.2,0c0,13.6,0,26.9,0,40.8c14,0,27.5,0,41.2,0c0,8.2,0,15.8,0,24
		c-13.8,0-27.3,0-41.1,0c0,13.8,0,27.1,0,40.7c-8,0-15.8,0-24,0c0-13.5,0-26.9,0-40.8c-13.8,0-27.2,0-40.8,0c0-8.1,0-15.8,0-23.8
		c13.4,0,26.7,0,40.5,0C87.9,47.4,87.9,34,87.9,20.1z"/>
	<path class="st2" d="M208.9,369.3c-57.6-0.8-113.5-19.5-162.5-58c-10.7-8.4-15.7-19.5-12.8-33.1c3-13.9,11.9-22.7,25.8-25.8
		c8.7-2,17-0.4,24.4,4.6c7.4,4.9,14.5,10.4,22.1,15.2c22.6,14.4,47.4,23.6,73.8,28c36.2,6,71.7,2.5,106.1-10.4
		c19-7.1,36.4-16.9,52.5-29.3c6.9-5.3,14.4-8.9,23.5-8.7c13.2,0.3,26.1,9.2,30.3,21.1c5.1,14.3,1.5,28.3-9.9,37.5
		c-18,14.6-37.7,26.5-58.9,35.9C289.1,361.3,250.6,369.3,208.9,369.3z M58.9,294.1c95.6,76.3,227.3,66.8,307.6,1.1
		c-4.8-6.1-9.6-12.3-14.6-18.5c-41.4,31.6-87.8,47.5-139.3,47.3c-51.6-0.2-97.9-16.8-138.9-48.4C68.6,281.9,63.8,287.9,58.9,294.1z"
		/>
	<path class="st2" d="M254.7,190.6c0.1,22.5-18.5,41.2-41.1,41.2c-22.6,0-41.2-18.7-41.1-41.2c0.1-22.4,18.6-41,40.9-41.1
		C235.8,149.4,254.6,168.1,254.7,190.6z"/>
	<path class="st3" d="M319.7,114.2c-22.6,0.1-41.3-18.5-41.3-41.1c0-22.5,18.8-41.3,41.2-41.3c22.3,0,41.3,19,41.2,41.3
		C360.6,95.5,341.9,114.2,319.7,114.2z M319.4,88.9c5.3-5.3,10.8-10.8,15.8-15.7c-5.3-5.3-10.8-10.8-15.7-15.7
		c-5.2,5.2-10.6,10.6-15.8,15.8C308.9,78.3,314.3,83.8,319.4,88.9z"/>
	<path class="st3" d="M319.4,88.9c-5.1-5.1-10.6-10.6-15.6-15.6c5.1-5.1,10.6-10.6,15.8-15.8c4.9,4.9,10.4,10.4,15.7,15.7
		C330.2,78.2,324.7,83.6,319.4,88.9z"/>
</g>
</svg>
